<svg width="734" height="640" viewBox="0 0 734 640" fill="none" xmlns="http://www.w3.org/2000/svg" xmlns:xlink="http://www.w3.org/1999/xlink">
<rect width="734" height="640" fill="url(#pattern0)"/>
<defs>
<pattern id="pattern0" patternContentUnits="objectBoundingBox" width="1" height="1">
<use xlink:href="#image0" transform="translate(-0.00408719) scale(0.0013624 0.0015625)"/>
</pattern>
<image id="image0" width="740" height="640" xlink:href="img/home.png"/>
</defs>
<path d="M223 530.7L443.8 538.7L513 525V546.7L444.5 566.4L223 555.4V530.7Z" fill="#3595F6" fill-opacity="0.75"/>
<path d="M224 529.7V504.7L444.3 508L514 504.7V524.7L444.7 537.7L224 529.7Z" fill="#3595F6" fill-opacity="0.75"/>
<path d="M224 503.7V478.7H445H514V501.7L446 508.7L224 503.7Z" fill="#3595F6" fill-opacity="0.75"/>
<path d="M224 479.7V454.7L445.3 451L513 457.7V479.7H445" fill="#3595F6" fill-opacity="0.75"/>
<path d="M224 453.7V427.7L445.5 424.4L514 435.4V456.7L445 450L224 453.7Z" fill="#3595F6" fill-opacity="0.75"/>
<path d="M223 426.7V403L444 390.7L515 413.7V435L444 422.7L223 426.7Z" fill="#3595F6" fill-opacity="0.75"/>
<path d="M223 404.7V379.7L445.2 363.4L515 392V412.7L444.7 391L223 404.7Z" fill="#3595F6" fill-opacity="0.75"/>
<path d="M223 379.7V354.7L445.5 334.4L515 371V391.7L443 363L223 379.7Z" fill="#3595F6" fill-opacity="0.75"/>
<path d="M223 353.7V329.7L446 305L515 349V370.7L445.7 332.7L223 353.7Z" fill="#3595F6" fill-opacity="0.75"/>
<path d="M223 328.7V304.7L445.5 276L515 327V347.7L444.7 305.4L223 328.7Z" fill="#3595F6" fill-opacity="0.75"/>
<path d="M222 304.7V280.7L444.3 247.7L515 307V326.7L445 276L222 304.7Z" fill="#3595F6" fill-opacity="0.75"/>
<path d="M223 279.7V255.7L444.2 220.7L514 284.7V305.7L445.3 247.4L223 279.7Z" fill="#3595F6" fill-opacity="0.75"/>
<path d="M223 255.7V230.7L445.3 192.7L514 263V283.7L445 219.7L223 255.7Z" fill="#3595F6" fill-opacity="0.75"/>
<path d="M223 229.7V204.7L443.8 161L514 240V262.7L445 189.4L223 229.7Z" fill="#3595F6" fill-opacity="0.75"/>
<path d="M224 205.7V180.7L444 132.7L514 217.7V240.7L443.3 161.4L224 205.7Z" fill="#3595F6" fill-opacity="0.75"/>
<path d="M223 180.7V155.7L442.8 103.7L514 196V218.7L444.3 132.4L223 180.7Z" fill="#3595F6" fill-opacity="0.75"/>
<path d="M223 155.7V129.7L445 73L514 174.7V195.7L444.7 104L223 155.7Z" fill="#3595F6" fill-opacity="0.75"/>

</svg>
